<?xml version="1.0" encoding="UTF-8"?>
<!DOCTYPE svg PUBLIC "-//W3C//DTD SVG 1.1//EN" "http://www.w3.org/Graphics/SVG/1.1/DTD/svg11.dtd">
<svg xmlns="http://www.w3.org/2000/svg" version="1.1" width="40px" height="40px" style="shape-rendering:geometricPrecision; text-rendering:geometricPrecision; image-rendering:optimizeQuality; fill-rule:evenodd; clip-rule:evenodd" xmlns:xlink="http://www.w3.org/1999/xlink">
<g><path style="opacity:0.741" fill="#37036d" d="M 5.5,4.5 C 8.8499,4.33499 12.1832,4.50166 15.5,5C 16.676,6.91423 17.676,6.74756 18.5,4.5C 19.4776,4.97665 20.3109,5.64332 21,6.5C 21.4226,5.04392 22.2559,4.54392 23.5,5C 28.2745,8.65505 29.7745,13.4884 28,19.5C 26.6413,21.6922 24.8079,23.3589 22.5,24.5C 21.8076,23.9747 21.3076,23.3081 21,22.5C 19.4877,24.9574 18.1544,24.9574 17,22.5C 16.5,23 16,23.5 15.5,24C 3.66667,26.1667 -1.16667,21.3333 1,9.5C 2.36569,7.63834 3.86569,5.97167 5.5,4.5 Z M 11.5,10.5 C 10.8333,10.5 10.1667,10.5 9.5,10.5C 10.1667,7.83333 10.8333,7.83333 11.5,10.5 Z M 8.5,17.5 C 9.60895,17.5569 10.609,17.8902 11.5,18.5C 10.3753,20.8384 9.37527,20.5051 8.5,17.5 Z"/></g>
</svg>
