<?xml version="1.0" encoding="UTF-8"?>
<!DOCTYPE svg PUBLIC "-//W3C//DTD SVG 1.1//EN" "http://www.w3.org/Graphics/SVG/1.1/DTD/svg11.dtd">
<svg xmlns="http://www.w3.org/2000/svg" version="1.1" width="48px" height="48px" style="shape-rendering:geometricPrecision; text-rendering:geometricPrecision; image-rendering:optimizeQuality; fill-rule:evenodd; clip-rule:evenodd" xmlns:xlink="http://www.w3.org/1999/xlink">
<g><path style="opacity:1" fill="#fad86f" d="M 20.5,5.5 C 20.8333,6.16667 21.1667,6.83333 21.5,7.5C 19.4214,7.97065 17.4214,8.63732 15.5,9.5C 14.791,8.59603 13.791,8.26269 12.5,8.5C 14.7916,6.73292 17.4582,5.73292 20.5,5.5 Z"/></g>
<g><path style="opacity:1" fill="#e4890d" d="M 24.5,8.5 C 29.1667,13.8333 34.1667,18.8333 39.5,23.5C 39.1667,24.8333 38.8333,26.1667 38.5,27.5C 35.5,26.5 33.5,24.5 32.5,21.5C 32.6107,20.8826 32.944,20.3826 33.5,20C 31.8659,19.5065 30.1992,19.3398 28.5,19.5C 27.5,19.5 26.5,19.5 25.5,19.5C 25.4828,17.4352 25.1495,15.4352 24.5,13.5C 22.6221,12.7924 20.9555,11.6257 19.5,10C 20.9047,8.73082 22.5714,8.23082 24.5,8.5 Z"/></g>
<g><path style="opacity:1" fill="#e07f08" d="M 24.5,8.5 C 25.5,8.5 26.5,8.5 27.5,8.5C 35.1699,10.5085 39.1699,15.5085 39.5,23.5C 34.1667,18.8333 29.1667,13.8333 24.5,8.5 Z"/></g>
<g><path style="opacity:0.749" fill="#fbe79d" d="M 12.5,8.5 C 13.791,8.26269 14.791,8.59603 15.5,9.5C 13.8333,10.5 12.5,11.8333 11.5,13.5C 10.5,13.8333 9.83333,14.5 9.5,15.5C 8.59603,14.791 8.26269,13.791 8.5,12.5C 9.5,10.8333 10.8333,9.5 12.5,8.5 Z"/></g>
<g><path style="opacity:1" fill="#e59a17" d="M 21.5,7.5 C 23.7354,7.20528 25.7354,7.53862 27.5,8.5C 26.5,8.5 25.5,8.5 24.5,8.5C 22.5714,8.23082 20.9047,8.73082 19.5,10C 20.9555,11.6257 22.6221,12.7924 24.5,13.5C 22.5544,14.0347 21.5544,15.368 21.5,17.5C 20.3646,19.2132 18.698,19.8799 16.5,19.5C 15.8333,19.5 15.1667,19.5 14.5,19.5C 13.5,17.5 12.5,15.5 11.5,13.5C 12.5,11.8333 13.8333,10.5 15.5,9.5C 17.4214,8.63732 19.4214,7.97065 21.5,7.5 Z"/></g>
<g><path style="opacity:0.625" fill="#f1b421" d="M 20.5,5.5 C 35.6763,5.00989 42.6763,12.3432 41.5,27.5C 40.8333,28.1667 40.1667,28.8333 39.5,29.5C 39.6716,28.5084 39.3382,27.8417 38.5,27.5C 38.8333,26.1667 39.1667,24.8333 39.5,23.5C 39.1699,15.5085 35.1699,10.5085 27.5,8.5C 25.7354,7.53862 23.7354,7.20528 21.5,7.5C 21.1667,6.83333 20.8333,6.16667 20.5,5.5 Z"/></g>
<g><path style="opacity:0.994" fill="#f9d873" d="M 8.5,12.5 C 8.26269,13.791 8.59603,14.791 9.5,15.5C 8.5592,17.0495 7.89254,18.7162 7.5,20.5C 6.83333,19.5 6.16667,18.5 5.5,17.5C 6.26315,15.6316 7.26315,13.9649 8.5,12.5 Z"/></g>
<g><path style="opacity:1" fill="#e59515" d="M 11.5,13.5 C 12.5,15.5 13.5,17.5 14.5,19.5C 14.0618,19.4346 13.7284,19.6012 13.5,20C 14.4709,21.4813 15.8042,22.3146 17.5,22.5C 17.8333,23.1667 18.1667,23.8333 18.5,24.5C 18.7373,25.791 18.404,26.791 17.5,27.5C 14.5361,25.0381 11.7028,22.3714 9,19.5C 8.61742,20.056 8.11742,20.3893 7.5,20.5C 7.89254,18.7162 8.5592,17.0495 9.5,15.5C 9.83333,14.5 10.5,13.8333 11.5,13.5 Z"/></g>
<g><path style="opacity:1" fill="#fdeca3" d="M 21.5,17.5 C 23.7744,20.115 26.1077,22.7817 28.5,25.5C 29.3235,27.4546 29.4901,29.4546 29,31.5C 28.2828,30.9558 27.7828,30.2891 27.5,29.5C 25.214,25.5293 21.8807,23.1959 17.5,22.5C 17.4431,21.391 17.1098,20.391 16.5,19.5C 18.698,19.8799 20.3646,19.2132 21.5,17.5 Z"/></g>
<g><path style="opacity:1" fill="#f4b929" d="M 28.5,19.5 C 30.1992,19.3398 31.8659,19.5065 33.5,20C 32.944,20.3826 32.6107,20.8826 32.5,21.5C 31.8333,21.8333 31.1667,22.1667 30.5,22.5C 29.8333,21.5 29.1667,20.5 28.5,19.5 Z"/></g>
<g><path style="opacity:1" fill="#fad974" d="M 14.5,19.5 C 15.1667,19.5 15.8333,19.5 16.5,19.5C 17.1098,20.391 17.4431,21.391 17.5,22.5C 15.8042,22.3146 14.4709,21.4813 13.5,20C 13.7284,19.6012 14.0618,19.4346 14.5,19.5 Z"/></g>
<g><path style="opacity:1" fill="#fbe188" d="M 17.5,22.5 C 21.8807,23.1959 25.214,25.5293 27.5,29.5C 25.8333,28.8333 24.1667,28.1667 22.5,27.5C 20.5695,27.2294 19.2362,26.2294 18.5,24.5C 18.1667,23.8333 17.8333,23.1667 17.5,22.5 Z"/></g>
<g><path style="opacity:1" fill="#f9d770" d="M 24.5,13.5 C 25.1495,15.4352 25.4828,17.4352 25.5,19.5C 26.5,19.5 27.5,19.5 28.5,19.5C 29.1667,20.5 29.8333,21.5 30.5,22.5C 29.0937,22.9731 28.427,23.9731 28.5,25.5C 26.1077,22.7817 23.7744,20.115 21.5,17.5C 21.5544,15.368 22.5544,14.0347 24.5,13.5 Z"/></g>
<g><path style="opacity:1" fill="#e27f07" d="M 18.5,36.5 C 13.0572,34.725 9.72382,31.0583 8.5,25.5C 8.43456,25.0618 8.60123,24.7284 9,24.5C 12.8333,28.3333 16.6667,32.1667 20.5,36C 19.9056,36.4643 19.2389,36.631 18.5,36.5 Z"/></g>
<g><path style="opacity:1" fill="#f1b526" d="M 5.5,17.5 C 6.16667,18.5 6.83333,19.5 7.5,20.5C 7.21552,22.4147 7.54885,24.0813 8.5,25.5C 9.72382,31.0583 13.0572,34.725 18.5,36.5C 19.5676,37.4345 20.901,37.7678 22.5,37.5C 22.5,38.1667 22.5,38.8333 22.5,39.5C 19.9214,39.6061 17.588,38.9395 15.5,37.5C 10.7189,35.0567 7.3856,31.39 5.5,26.5C 5.5,23.5 5.5,20.5 5.5,17.5 Z"/></g>
<g><path style="opacity:1" fill="#f5c13c" d="M 18.5,24.5 C 19.2362,26.2294 20.5695,27.2294 22.5,27.5C 22.1667,28.1667 21.8333,28.8333 21.5,29.5C 20.4168,29.5394 19.4168,29.8728 18.5,30.5C 17.6143,29.675 17.281,28.675 17.5,27.5C 18.404,26.791 18.7373,25.791 18.5,24.5 Z"/></g>
<g><path style="opacity:1" fill="#e48c0e" d="M 17.5,27.5 C 17.281,28.675 17.6143,29.675 18.5,30.5C 19.4168,29.8728 20.4168,29.5394 21.5,29.5C 24.1667,31.5 26.5,33.8333 28.5,36.5C 26.5648,37.1495 24.5648,37.4828 22.5,37.5C 20.901,37.7678 19.5676,37.4345 18.5,36.5C 19.2389,36.631 19.9056,36.4643 20.5,36C 16.6667,32.1667 12.8333,28.3333 9,24.5C 8.60123,24.7284 8.43456,25.0618 8.5,25.5C 7.54885,24.0813 7.21552,22.4147 7.5,20.5C 8.11742,20.3893 8.61742,20.056 9,19.5C 11.7028,22.3714 14.5361,25.0381 17.5,27.5 Z"/></g>
<g><path style="opacity:1" fill="#e79e1a" d="M 32.5,21.5 C 33.5,24.5 35.5,26.5 38.5,27.5C 36.4169,31.9177 33.0836,34.9177 28.5,36.5C 26.5,33.8333 24.1667,31.5 21.5,29.5C 21.8333,28.8333 22.1667,28.1667 22.5,27.5C 24.1667,28.1667 25.8333,28.8333 27.5,29.5C 27.7828,30.2891 28.2828,30.9558 29,31.5C 29.4901,29.4546 29.3235,27.4546 28.5,25.5C 28.427,23.9731 29.0937,22.9731 30.5,22.5C 31.1667,22.1667 31.8333,21.8333 32.5,21.5 Z"/></g>
<g><path style="opacity:1" fill="#fae291" d="M 38.5,27.5 C 39.3382,27.8417 39.6716,28.5084 39.5,29.5C 37.4938,33.5062 34.4938,36.5062 30.5,38.5C 29.8333,38.5 29.1667,38.5 28.5,38.5C 28.5,37.8333 28.5,37.1667 28.5,36.5C 33.0836,34.9177 36.4169,31.9177 38.5,27.5 Z"/></g>
<g><path style="opacity:0.706" fill="#cf7910" d="M 41.5,27.5 C 40.3497,33.9821 36.683,38.3155 30.5,40.5C 30.5,39.8333 30.5,39.1667 30.5,38.5C 34.4938,36.5062 37.4938,33.5062 39.5,29.5C 40.1667,28.8333 40.8333,28.1667 41.5,27.5 Z"/></g>
<g><path style="opacity:0.925" fill="#d07d09" d="M 5.5,26.5 C 7.3856,31.39 10.7189,35.0567 15.5,37.5C 15.5,38.5 15.5,39.5 15.5,40.5C 9.43768,37.7726 6.10434,33.106 5.5,26.5 Z"/></g>
<g><path style="opacity:1" fill="#f5ca56" d="M 28.5,36.5 C 28.5,37.1667 28.5,37.8333 28.5,38.5C 26.7354,39.4614 24.7354,39.7947 22.5,39.5C 22.5,38.8333 22.5,38.1667 22.5,37.5C 24.5648,37.4828 26.5648,37.1495 28.5,36.5 Z"/></g>
<g><path style="opacity:0.82" fill="#d38d13" d="M 15.5,37.5 C 17.588,38.9395 19.9214,39.6061 22.5,39.5C 24.7354,39.7947 26.7354,39.4614 28.5,38.5C 29.1667,38.5 29.8333,38.5 30.5,38.5C 30.5,39.1667 30.5,39.8333 30.5,40.5C 25.5312,41.7829 20.5312,41.7829 15.5,40.5C 15.5,39.5 15.5,38.5 15.5,37.5 Z"/></g>
</svg>
