<?xml version="1.0" encoding="UTF-8"?>
<!DOCTYPE svg PUBLIC "-//W3C//DTD SVG 1.1//EN" "http://www.w3.org/Graphics/SVG/1.1/DTD/svg11.dtd">
<svg xmlns="http://www.w3.org/2000/svg" version="1.1" width="40px" height="40px" style="shape-rendering:geometricPrecision; text-rendering:geometricPrecision; image-rendering:optimizeQuality; fill-rule:evenodd; clip-rule:evenodd" xmlns:xlink="http://www.w3.org/1999/xlink">
<g><path style="opacity:0.993" fill="#fedc0f" d="M 16.5,1.5 C 32.6448,1.47742 39.8115,9.47742 38,25.5C 32.1941,37.6592 23.0274,41.1592 10.5,36C 1.39681,29.3447 -0.769859,20.8447 4,10.5C 7.29905,6.1179 11.4657,3.1179 16.5,1.5 Z"/></g>
<g><path style="opacity:1" fill="#fcbc0a" d="M 17.5,5.5 C 14.2467,12.3479 10.2467,18.6813 5.5,24.5C 3.69278,14.4399 7.69278,8.10657 17.5,5.5 Z"/></g>
<g><path style="opacity:1" fill="#fffefb" d="M 17.5,5.5 C 19.1667,5.5 20.8333,5.5 22.5,5.5C 18.3347,13.8361 13.668,21.8361 8.5,29.5C 7.11028,28.1007 6.11028,26.4341 5.5,24.5C 10.2467,18.6813 14.2467,12.3479 17.5,5.5 Z"/></g>
<g><path style="opacity:1" fill="#fffefd" d="M 24.5,5.5 C 25.8333,6.16667 27.1667,6.83333 28.5,7.5C 26.4236,12.6511 24.0903,17.6511 21.5,22.5C 18.9308,25.961 16.5974,29.6277 14.5,33.5C 12.326,33.2503 10.6594,32.2503 9.5,30.5C 14.8899,22.4337 19.8899,14.1004 24.5,5.5 Z"/></g>
<g><path style="opacity:1" fill="#fec10e" d="M 28.5,7.5 C 34.2447,12.0164 35.9114,17.683 33.5,24.5C 31.5928,21.0246 29.4262,17.6912 27,14.5C 25.2491,16.212 24.5825,18.212 25,20.5C 26.8588,23.5638 28.6921,26.5638 30.5,29.5C 30.5,30.1667 30.1667,30.5 29.5,30.5C 27.8583,27.8975 26.1916,25.2308 24.5,22.5C 23.5754,21.4376 22.5754,21.4376 21.5,22.5C 24.0903,17.6511 26.4236,12.6511 28.5,7.5 Z"/></g>
<g><path style="opacity:1" fill="#fffefb" d="M 33.5,24.5 C 33.2503,26.674 32.2503,28.3406 30.5,29.5C 28.6921,26.5638 26.8588,23.5638 25,20.5C 24.5825,18.212 25.2491,16.212 27,14.5C 29.4262,17.6912 31.5928,21.0246 33.5,24.5 Z"/></g>
<g><path style="opacity:1" fill="#ffc217" d="M 22.5,5.5 C 23.1667,5.5 23.8333,5.5 24.5,5.5C 19.8899,14.1004 14.8899,22.4337 9.5,30.5C 8.83333,30.5 8.5,30.1667 8.5,29.5C 13.668,21.8361 18.3347,13.8361 22.5,5.5 Z"/></g>
<g><path style="opacity:1" fill="#fffefd" d="M 29.5,30.5 C 28.3406,32.2503 26.674,33.2503 24.5,33.5C 21.3931,30.3191 20.3931,26.6524 21.5,22.5C 22.5754,21.4376 23.5754,21.4376 24.5,22.5C 26.1916,25.2308 27.8583,27.8975 29.5,30.5 Z"/></g>
<g><path style="opacity:1" fill="#ffc113" d="M 21.5,22.5 C 20.3931,26.6524 21.3931,30.3191 24.5,33.5C 21.1667,34.8333 17.8333,34.8333 14.5,33.5C 16.5974,29.6277 18.9308,25.961 21.5,22.5 Z"/></g>
</svg>
